<?xml version="1.0" encoding="utf-8"?>
<!-- Generator: Adobe Illustrator 26.0.0, SVG Export Plug-In . SVG Version: 6.00 Build 0)  -->
<!DOCTYPE svg PUBLIC "-//W3C//DTD SVG 1.1//EN" "http://www.w3.org/Graphics/SVG/1.1/DTD/svg11.dtd" [
	<!ENTITY ns_extend "http://ns.adobe.com/Extensibility/1.0/">
	<!ENTITY ns_ai "http://ns.adobe.com/AdobeIllustrator/10.0/">
	<!ENTITY ns_graphs "http://ns.adobe.com/Graphs/1.0/">
	<!ENTITY ns_vars "http://ns.adobe.com/Variables/1.0/">
	<!ENTITY ns_imrep "http://ns.adobe.com/ImageReplacement/1.0/">
	<!ENTITY ns_sfw "http://ns.adobe.com/SaveForWeb/1.0/">
	<!ENTITY ns_custom "http://ns.adobe.com/GenericCustomNamespace/1.0/">
	<!ENTITY ns_adobe_xpath "http://ns.adobe.com/XPath/1.0/">
]>
<svg version="1.1" id="Layer_1" xmlns:x="&ns_extend;" xmlns:i="&ns_ai;" xmlns:graph="&ns_graphs;"
	 xmlns="http://www.w3.org/2000/svg" xmlns:xlink="http://www.w3.org/1999/xlink" x="0px" y="0px" viewBox="0 0 766.2 291.2"
	 style="enable-background:new 0 0 766.2 291.2;" xml:space="preserve">
<style type="text/css">
	.st0{fill:#00B9F2;}
	.st1{fill:none;stroke:#000000;stroke-width:7.821;stroke-linecap:round;stroke-linejoin:round;stroke-miterlimit:10;}
	.st2{fill:none;stroke:#000000;stroke-width:7.821;stroke-miterlimit:10;}
</style>
<metadata>
	<sfw  xmlns="&ns_sfw;">
		<slices></slices>
		<sliceSourceBounds  bottomLeftOrigin="true" height="291.2" width="766.2" x="111.8" y="-638.3"></sliceSourceBounds>
	</sfw>
</metadata>
<g>
	<path class="st0" d="M294.4,248.8h5l13,42h-7.8l-7.7-28.1l-7.7,28.1h-7.8L294.4,248.8z M288.6,277h16.8v7.2h-16.8V277z"/>
	<path class="st0" d="M316,248.8h7.6l12.8,30.1l-0.8,1v-31h7v42H335l-12.7-29l0.7-1v30h-7V248.8z"/>
	<path class="st0" d="M364.5,274.7v16.1H357v-16.1l-10.1-25.9h7.9l6,17.7l5.9-17.7h7.9L364.5,274.7z"/>
	<path class="st0" d="M400,248.8h5.9l6.3,28.6l3.8-28.6h7.7l-7.5,42H409l-5.9-28.2l-6.2,28.2h-7.2l-7.5-42h7.7l3.7,28.6L400,248.8z"
		/>
	<path class="st0" d="M434.3,248.8h5l13,42h-7.8l-7.7-28.1l-7.7,28.1h-7.8L434.3,248.8z M428.6,277h16.8v7.2h-16.8V277z"/>
	<path class="st0" d="M466.3,274.7v16.1h-7.5v-16.1l-10.1-25.9h7.9l6,17.7l5.9-17.7h7.9L466.3,274.7z"/>
	<path class="st0" d="M501.5,274.7v16.1H494v-16.1l-10.1-25.9h7.9l6,17.7l5.9-17.7h7.9L501.5,274.7z"/>
	<path class="st0" d="M518.5,289.7c-2-1-3.5-2.5-4.5-4.4s-1.6-4.2-1.6-6.7V261c0-2.6,0.5-4.8,1.6-6.7s2.6-3.4,4.5-4.4
		c2-1,4.3-1.5,6.9-1.5c2.6,0,4.9,0.5,6.9,1.5s3.5,2.5,4.5,4.4c1.1,1.9,1.6,4.2,1.6,6.7v17.6c0,2.6-0.5,4.8-1.6,6.7
		c-1.1,1.9-2.6,3.4-4.5,4.4s-4.3,1.5-6.9,1.5C522.8,291.2,520.5,290.7,518.5,289.7z M528.3,283c0.8-0.4,1.4-1.1,1.8-1.9
		c0.4-0.8,0.6-1.8,0.6-2.9v-16.8c0-1.1-0.2-2.1-0.6-2.9c-0.4-0.8-1-1.5-1.8-1.9c-0.8-0.5-1.8-0.7-2.8-0.7s-2,0.2-2.8,0.7
		c-0.8,0.5-1.4,1.1-1.8,1.9c-0.4,0.8-0.7,1.8-0.7,2.9v16.8c0,1.1,0.2,2.1,0.7,2.9c0.4,0.8,1,1.5,1.8,1.9c0.8,0.4,1.7,0.7,2.8,0.7
		S527.5,283.5,528.3,283z"/>
	<path class="st0" d="M548.8,289.7c-1.9-1-3.3-2.5-4.3-4.5c-1-2-1.5-4.3-1.5-7.1v-29.3h7.5v29.5c0,1.7,0.4,3,1.3,4
		c0.9,1,2.2,1.4,3.8,1.4c1.6,0,2.9-0.5,3.8-1.4s1.4-2.3,1.4-4v-29.5h7.5v29.3c0,2.8-0.5,5.1-1.5,7.1c-1,2-2.5,3.5-4.4,4.5
		c-1.9,1-4.2,1.5-6.8,1.5S550.7,290.7,548.8,289.7z"/>
	<path class="st0" d="M583.4,289.7c-1.9-1-3.3-2.5-4.3-4.5c-1-2-1.5-4.3-1.5-7.1v-16.5c0-2.8,0.5-5.2,1.5-7.1c1-2,2.4-3.5,4.3-4.5
		c1.9-1,4.2-1.5,6.8-1.5c2.6,0,4.8,0.5,6.6,1.6c1.8,1,3.2,2.6,4.2,4.7s1.6,4.8,1.8,8H595c-0.1-1.5-0.4-2.8-0.8-3.8
		c-0.4-1-0.9-1.7-1.6-2.2c-0.7-0.5-1.5-0.7-2.4-0.7c-1,0-1.9,0.2-2.6,0.6c-0.7,0.4-1.3,1.1-1.7,1.9c-0.4,0.8-0.6,1.9-0.6,3v16.5
		c0,1.2,0.2,2.2,0.6,3c0.4,0.8,1,1.5,1.7,1.9c0.7,0.4,1.6,0.6,2.6,0.6c1,0,1.8-0.2,2.5-0.7s1.2-1.2,1.6-2.2c0.4-1,0.7-2.2,0.8-3.8
		h7.7c-0.2,3.2-0.8,5.9-1.8,8c-1,2.1-2.4,3.7-4.2,4.7c-1.8,1-4,1.6-6.6,1.6C587.5,291.2,585.3,290.7,583.4,289.7z"/>
	<path class="st0" d="M607.5,248.8h7.5v42h-7.5V248.8z M611,266.5h19.3v7.1H611V266.5z M625.4,248.8h7.5v42h-7.5V248.8z"/>
	<path class="st0" d="M644.1,289.7c-2-1-3.5-2.5-4.5-4.4s-1.6-4.2-1.6-6.7V261c0-2.6,0.5-4.8,1.6-6.7s2.6-3.4,4.5-4.4
		c2-1,4.3-1.5,6.9-1.5c2.6,0,4.9,0.5,6.9,1.5s3.5,2.5,4.5,4.4c1.1,1.9,1.6,4.2,1.6,6.7v17.6c0,2.6-0.5,4.8-1.6,6.7
		c-1.1,1.9-2.6,3.4-4.5,4.4s-4.3,1.5-6.9,1.5C648.4,291.2,646,290.7,644.1,289.7z M653.8,283c0.8-0.4,1.4-1.1,1.8-1.9
		c0.4-0.8,0.6-1.8,0.6-2.9v-16.8c0-1.1-0.2-2.1-0.6-2.9c-0.4-0.8-1-1.5-1.8-1.9c-0.8-0.5-1.8-0.7-2.8-0.7s-2,0.2-2.8,0.7
		c-0.8,0.5-1.4,1.1-1.8,1.9c-0.4,0.8-0.7,1.8-0.7,2.9v16.8c0,1.1,0.2,2.1,0.7,2.9c0.4,0.8,1,1.5,1.8,1.9c0.8,0.4,1.7,0.7,2.8,0.7
		S653,283.5,653.8,283z"/>
	<path class="st0" d="M674.8,289.7c-2-1-3.5-2.5-4.5-4.4s-1.6-4.2-1.6-6.7V261c0-2.6,0.5-4.8,1.6-6.7s2.6-3.4,4.5-4.4
		c2-1,4.3-1.5,6.9-1.5c2.6,0,4.9,0.5,6.9,1.5s3.5,2.5,4.5,4.4c1.1,1.9,1.6,4.2,1.6,6.7v17.6c0,2.6-0.5,4.8-1.6,6.7
		c-1.1,1.9-2.6,3.4-4.5,4.4s-4.3,1.5-6.9,1.5C679,291.2,676.7,290.7,674.8,289.7z M684.5,283c0.8-0.4,1.4-1.1,1.8-1.9
		c0.4-0.8,0.6-1.8,0.6-2.9v-16.8c0-1.1-0.2-2.1-0.6-2.9c-0.4-0.8-1-1.5-1.8-1.9c-0.8-0.5-1.8-0.7-2.8-0.7s-2,0.2-2.8,0.7
		c-0.8,0.5-1.4,1.1-1.8,1.9c-0.4,0.8-0.7,1.8-0.7,2.9v16.8c0,1.1,0.2,2.1,0.7,2.9c0.4,0.8,1,1.5,1.8,1.9c0.8,0.4,1.7,0.7,2.8,0.7
		S683.7,283.5,684.5,283z"/>
	<path class="st0" d="M705.1,290.2c-1.8-0.7-3.3-1.7-4.4-3.1s-2-3.1-2.5-5.2l7-3.1c0.5,1.7,1.4,2.9,2.5,3.8c1.1,0.9,2.5,1.3,4.1,1.3
		c1.7,0,2.9-0.4,3.9-1.1c0.9-0.7,1.4-1.8,1.4-3.1v-1.8c0-0.9-0.3-1.7-0.8-2.3c-0.5-0.6-1.2-1.1-2.1-1.5c-0.9-0.4-2-0.7-3.4-1.2
		c-0.1,0-0.1-0.1-0.2-0.1c0,0-0.1,0-0.1,0l-0.4-0.1c-2.3-0.7-4.2-1.4-5.6-2.1c-1.5-0.7-2.7-1.9-3.7-3.4c-1-1.5-1.5-3.6-1.5-6.1v-1.2
		c0-2.4,0.5-4.5,1.5-6.2c1-1.7,2.5-3.1,4.4-4c1.9-0.9,4.3-1.4,7-1.4c2.1,0,3.9,0.3,5.5,1c1.6,0.7,2.9,1.7,4,3c1.1,1.3,1.9,3,2.4,5
		l-6.7,3.1c-0.6-1.6-1.3-2.8-2.3-3.6c-1-0.8-2.1-1.2-3.4-1.2c-1.6,0-2.9,0.3-3.7,1c-0.9,0.7-1.3,1.6-1.3,2.8v1.4
		c0,1,0.3,1.9,0.9,2.5c0.6,0.6,1.3,1.2,2.1,1.5c0.8,0.4,2,0.8,3.5,1.3c0.1,0,0.3,0.1,0.4,0.1c0.1,0,0.2,0.1,0.3,0.1
		c0.1,0,0.2,0,0.3,0.1c0.1,0,0.1,0.1,0.2,0.1c2.1,0.7,3.8,1.4,5.2,2.1s2.5,1.9,3.5,3.3s1.4,3.4,1.4,5.9v1.8c0,2.4-0.5,4.5-1.6,6.2
		c-1,1.7-2.6,3.1-4.5,4s-4.4,1.4-7.1,1.4C709,291.2,706.9,290.9,705.1,290.2z"/>
	<path class="st0" d="M729.6,248.8h7.5v42h-7.5V248.8z M732.6,248.8H753v7.3h-20.4V248.8z M732.6,266.3h18.1v7.2h-18.1V266.3z
		 M732.6,283.5H753v7.3h-20.4V283.5z"/>
</g>
<line class="st1" x1="56.5" y1="285.3" x2="85.4" y2="226"/>
<line class="st1" x1="36.2" y1="71.8" x2="14.4" y2="3.9"/>
<g>
	<path class="st2" d="M149.7,206.5c37.5-31.5,42.4-87.5,10.9-125C129.1,43.9,73.2,39,35.6,70.6c-37.6,31.5-42.4,87.5-10.9,125
		C56.2,233.1,112.2,238,149.7,206.5z"/>
</g>
<line class="st1" x1="239.8" y1="180.7" x2="35.5" y2="70.9"/>
<polygon class="st0" points="178,147.7 36.8,72.7 86.2,224.8 115.4,166.9 "/>
<polygon class="st2" points="178,147.7 36.8,72.7 86.2,224.8 115.4,166.9 "/>
<g>
	<path d="M766.2,146.7V46.4h-24.7v50.4l-32.1-50.4h-21.6v100.3h24.7V96.2l32.1,50.4H766.2z M651.2,96.5c0,18.3-1.4,21.6-3.7,24.5
		c-1.8,2.4-5.4,4.5-9.9,4.5s-8-2.1-9.9-4.5c-2.3-3-3.7-6.2-3.7-24.5c0-18.3,1.4-21.7,3.7-24.7c1.8-2.4,5.4-4.4,9.9-4.4s8,2,9.9,4.4
		C649.8,74.8,651.2,78.2,651.2,96.5 M675.8,96.5c0-15.1,0.4-29.2-10.1-39.7c-7.3-7.3-15.8-11.3-28-11.3c-12.3,0-20.7,3.9-28,11.3
		c-10.6,10.6-10.1,24.7-10.1,39.7c0,15.1-0.4,29.2,10.1,39.7c7.3,7.3,15.8,11.3,28,11.3c12.3,0,20.7-3.9,28-11.3
		C676.3,125.7,675.8,111.6,675.8,96.5 M593.4,146.7v-22h-42.1V46.4h-24.7v100.3H593.4z M479,111.2h-17.5l9-26.8L479,111.2z
		 M515.9,146.7L479.4,46.4h-19l-36.5,100.3h25.8l4.9-14.9h30.9l4.7,14.9H515.9z M440.2,46.4h-26.9l-15.6,36.1l-15.8-36.1H355
		l30.3,59.5v40.9h24.7v-40.9L440.2,46.4z M334.4,111.2h-17.5l9-26.8L334.4,111.2z M371.3,146.7L334.8,46.4h-19l-36.5,100.3h25.8
		l4.9-14.9h30.9l4.6,14.9H371.3z"/>
	<path d="M673.3,210.5c0-5.7-1.5-10.5-4.9-13.8c-2.7-2.6-6.3-4.2-12.2-5l-7.5-1.1c-2.6-0.4-4.6-1.4-5.9-2.6c-1.3-1.3-1.9-3-1.9-4.7
		c0-4.5,3.2-8.2,9.8-8.2c4.2,0,9,0.5,13,4.5l7.9-7.9c-5.5-5.4-11.8-7.6-20.6-7.6c-13.8,0-22.2,8.1-22.2,19.7c0,5.5,1.5,9.7,4.6,12.8
		c2.9,2.8,6.9,4.6,12.3,5.4l7.7,1.1c2.9,0.5,4.4,1.1,5.6,2.3c1.3,1.3,2,3.2,2,5.5c0,5.2-3.9,8-11.3,8c-5.9,0-11.3-1.4-15.4-5.5
		l-8,8.2c6.3,6.5,13.6,8.6,23.2,8.6C663,230.2,673.3,223.1,673.3,210.5 M628.6,164.7h-13.5l-11.7,26.2l-11.9-26.2h-13.5l19.1,38.3
		v26.6h12.3V203L628.6,164.7z M570.4,207.5h-15.8l8-23.6L570.4,207.5z M590.4,229.7l-23.2-64.9h-9.7l-23.1,64.9h13l3.8-11.5h22.6
		l3.8,11.5H590.4z M541,164.7h-13l-9.9,40.9l-11.6-40.9h-9.3l-11.6,40.9l-9.8-40.9h-13l17,64.9h10.4l11.7-39.4l11.7,39.4h10.4
		L541,164.7z M455.4,229.7v-64.9h-12.4v26.5h-21.5v-26.5H409v64.9h12.4v-27.2h21.5v27.2H455.4z M401.1,202.8v-9.3h-23.7v10.6h11.3
		v2.3c0,3.2-0.7,6.6-2.8,8.8c-2.1,2.3-4.7,3.6-8.5,3.6c-3.4,0-6.2-1.3-8-3.4c-2.4-2.7-3-5.8-3-18.3c0-12.5,0.6-15.5,3-18.2
		c1.8-2.1,4.6-3.5,8-3.5c4.9,0,7.5,1.9,11.1,5.6l8.4-8.6c-5.7-5.8-10.6-8.3-19.5-8.3c-7.1,0-12.7,2.6-17.2,7.1
		c-6.4,6.6-6.3,14.7-6.3,25.9c0,11.2-0.2,19.3,6.3,25.9c4.5,4.6,10.2,7.1,17.2,7.1c7.2,0,13.2-2.6,17.8-7.5
		C399.7,218,401.1,212.2,401.1,202.8 M347.2,164.7h-12.4v64.9h12.4V164.7z M325.9,229.7v-64.9h-12.4v26.5h-21.5v-26.5h-12.4v64.9
		h12.4v-27.2h21.5v27.2H325.9z"/>
</g>
</svg>
